{"asset":{"version":"2.0","generator":"Blockbench 4.11.2 glTF exporter"},"scenes":[{"nodes":[4],"name":"blockbench_export"}],"scene":0,"nodes":[{"translation":[0,0,0.0625],"name":"garde","mesh":0},{"rotation":[0,-0.10886687485196457,0,0.9940563382223196],"translation":[0,-0.234375,0],"name":"manche","mesh":1},{"rotation":[2.157741152630368e-8,0.13052619222006243,3.2166485468887355e-9,0.9914448613738087],"translation":[0.5,1.59375,0],"name":"lame","mesh":2},{"translation":[0,0.53125,0],"name":"Katana","children":[0,1,2]},{"children":[3]}],"bufferViews":[{"buffer":0,"byteOffset":0,"byteLength":96,"target":34962,"byteStride":12},{"buffer":0,"byteOffset":96,"byteLength":96,"target":34962,"byteStride":12},{"buffer":0,"byteOffset":192,"byteLength":64,"target":34962,"byteStride":8},{"buffer":0,"byteOffset":256,"byteLength":24,"target":34963},{"buffer":0,"byteOffset":280,"byteLength":2016,"target":34962,"byteStride":12},{"buffer":0,"byteOffset":2296,"byteLength":2016,"target":34962,"byteStride":12},{"buffer":0,"byteOffset":4312,"byteLength":1344,"target":34962,"byteStride":8},{"buffer":0,"byteOffset":5656,"byteLength":432,"target":34963},{"buffer":0,"byteOffset":6088,"byteLength":6216,"target":34962,"byteStride":12},{"buffer":0,"byteOffset":12304,"byteLength":6216,"target":34962,"byteStride":12},{"buffer":0,"byteOffset":18520,"byteLength":4144,"target":34962,"byteStride":8},{"buffer":0,"byteOffset":22664,"byteLength":1392,"target":34963},{"buffer":0,"byteOffset":24056,"byteLength":20},{"buffer":0,"byteOffset":24076,"byteLength":80}],"buffers":[{"byteLength":24156,"uri":"data:application/octet-stream;base64,"}],"accessors":[{"bufferView":0,"componentType":5126,"count":8,"max":[0.15625,0,0.0625],"min":[-0.15625,0,-0.1875],"type":"VEC3"},{"bufferView":1,"componentType":5126,"count":8,"max":[0,1,0],"min":[0,1,0],"type":"VEC3"},{"bufferView":2,"componentType":5126,"count":8,"max":[0.3125,0.3125],"min":[0,0],"type":"VEC2"},{"bufferView":3,"componentType":5123,"count":12,"max":[7],"min":[0],"type":"SCALAR"},{"bufferView":4,"componentType":5126,"count":168,"max":[0.09226849675178528,0.234375,0.05289687588810921],"min":[-0.09226849675178528,-0.296875,-0.05289687588810921],"type":"VEC3"},{"bufferView":5,"componentType":5126,"count":168,"max":[1,1,0.9852094054222107],"min":[-1,-1,-0.9852094054222107],"type":"VEC3"},{"bufferView":6,"componentType":5126,"count":168,"max":[0.4055093824863434,0.578125],"min":[0.000740625022444874,0],"type":"VEC2"},{"bufferView":7,"componentType":5123,"count":216,"max":[167],"min":[0],"type":"SCALAR"},{"bufferView":8,"componentType":5126,"count":518,"max":[-0.3607501983642578,-0.04039095342159271,-0.08835496008396149],"min":[-0.5874082446098328,-1.59671950340271,-0.1672205924987793],"type":"VEC3"},{"bufferView":9,"componentType":5126,"count":518,"max":[1,0.9962900280952454,1],"min":[-1,-1,-1],"type":"VEC3"},{"bufferView":10,"componentType":5126,"count":518,"max":[0.5552768111228943,1],"min":[8.583628599567739e-16,0],"type":"VEC2"},{"bufferView":11,"componentType":5123,"count":696,"max":[517],"min":[0],"type":"SCALAR"},{"bufferView":12,"componentType":5126,"count":5,"max":[4],"min":[0],"type":"SCALAR"},{"bufferView":13,"componentType":5126,"count":5,"max":[0,0,0,1],"min":[0,-1,0,-1],"type":"VEC4"}],"materials":[{"pbrMetallicRoughness":{"metallicFactor":0,"roughnessFactor":1,"baseColorTexture":{"index":0}},"alphaMode":"MASK","alphaCutoff":0.05,"doubleSided":true},{"pbrMetallicRoughness":{"metallicFactor":0,"roughnessFactor":1,"baseColorTexture":{"index":1}},"alphaMode":"MASK","alphaCutoff":0.05,"doubleSided":true},{"pbrMetallicRoughness":{"metallicFactor":0,"roughnessFactor":1,"baseColorTexture":{"index":2}},"alphaMode":"MASK","alphaCutoff":0.05,"doubleSided":true}],"textures":[{"sampler":0,"source":0,"name":"texture_garde.png"},{"sampler":1,"source":1,"name":"texture_manche.png"},{"sampler":2,"source":2,"name":"texture_lame.png"}],"samplers":[{"magFilter":9728,"minFilter":9728,"wrapS":33071,"wrapT":33071},{"magFilter":9728,"minFilter":9728,"wrapS":33071,"wrapT":33071},{"magFilter":9728,"minFilter":9728,"wrapS":33071,"wrapT":33071}],"images":[{"mimeType":"image/png","uri":"data:image/png;base64,"},{"mimeType":"image/png","uri":"data:image/png;base64,"},{"mimeType":"image/png","uri":"data:image/png;base64,"}],"meshes":[{"primitives":[{"mode":4,"attributes":{"POSITION":0,"NORMAL":1,"TEXCOORD_0":2},"indices":3,"material":0}]},{"primitives":[{"mode":4,"attributes":{"POSITION":4,"NORMAL":5,"TEXCOORD_0":6},"indices":7,"material":1}]},{"primitives":[{"mode":4,"attributes":{"POSITION":8,"NORMAL":9,"TEXCOORD_0":10},"indices":11,"material":2}]}],"animations":[{"name":"rotation","samplers":[{"input":12,"output":13,"interpolation":"LINEAR"}],"channels":[{"sampler":0,"target":{"node":3,"path":"rotation"}}]}]}