{"asset":{"version":"2.0","generator":"Blockbench 4.11.2 glTF exporter"},"scenes":[{"nodes":[4],"name":"blockbench_export"}],"scene":0,"nodes":[{"translation":[0,0.24375,0],"name":"bas batte","mesh":0},{"translation":[0,0.24375,0],"name":"manche batte","mesh":1},{"translation":[0,0.24375,0],"name":"haut batte","mesh":2},{"translation":[0,0.24375,0],"name":"milieu batte","mesh":3},{"children":[0,1,2,3]}],"bufferViews":[{"buffer":0,"byteOffset":0,"byteLength":1440,"target":34962,"byteStride":12},{"buffer":0,"byteOffset":1440,"byteLength":1440,"target":34962,"byteStride":12},{"buffer":0,"byteOffset":2880,"byteLength":960,"target":34962,"byteStride":8},{"buffer":0,"byteOffset":3840,"byteLength":288,"target":34963},{"buffer":0,"byteOffset":4128,"byteLength":3168,"target":34962,"byteStride":12},{"buffer":0,"byteOffset":7296,"byteLength":3168,"target":34962,"byteStride":12},{"buffer":0,"byteOffset":10464,"byteLength":2112,"target":34962,"byteStride":8},{"buffer":0,"byteOffset":12576,"byteLength":720,"target":34963},{"buffer":0,"byteOffset":13296,"byteLength":3168,"target":34962,"byteStride":12},{"buffer":0,"byteOffset":16464,"byteLength":3168,"target":34962,"byteStride":12},{"buffer":0,"byteOffset":19632,"byteLength":2112,"target":34962,"byteStride":8},{"buffer":0,"byteOffset":21744,"byteLength":720,"target":34963},{"buffer":0,"byteOffset":22464,"byteLength":1440,"target":34962,"byteStride":12},{"buffer":0,"byteOffset":23904,"byteLength":1440,"target":34962,"byteStride":12},{"buffer":0,"byteOffset":25344,"byteLength":960,"target":34962,"byteStride":8},{"buffer":0,"byteOffset":26304,"byteLength":288,"target":34963}],"buffers":[{"byteLength":26592,"uri":"data:application/octet-stream;base64,"}],"accessors":[{"bufferView":0,"componentType":5126,"count":120,"max":[0.03125,0.05937499925494194,0.03125],"min":[-0.03125,-0.05937499925494194,-0.03125],"type":"VEC3"},{"bufferView":1,"componentType":5126,"count":120,"max":[0.987762987613678,1,0.987762987613678],"min":[-0.987762987613678,-1,-0.987762987613678],"type":"VEC3"},{"bufferView":2,"componentType":5126,"count":120,"max":[0.625,0.59375],"min":[0.012413032352924347,0],"type":"VEC2"},{"bufferView":3,"componentType":5123,"count":144,"max":[119],"min":[0],"type":"SCALAR"},{"bufferView":4,"componentType":5126,"count":264,"max":[0.01875000074505806,-0.0546875,0.01875000074505806],"min":[-0.01875000074505806,-0.07500000298023224,-0.01875000074505806],"type":"VEC3"},{"bufferView":5,"componentType":5126,"count":264,"max":[0.9607982039451599,1,0.9607982039451599],"min":[-0.9607982039451599,-0.986520528793335,-0.9607982039451599],"type":"VEC3"},{"bufferView":6,"componentType":5126,"count":264,"max":[0.5611782073974609,0.78125],"min":[0.0013217864325270057,0],"type":"VEC2"},{"bufferView":7,"componentType":5123,"count":360,"max":[263],"min":[0],"type":"SCALAR"},{"bufferView":8,"componentType":5126,"count":264,"max":[0.03125,0.22499999403953552,0.03125],"min":[-0.03125,0.16249999403953552,-0.03125],"type":"VEC3"},{"bufferView":9,"componentType":5126,"count":264,"max":[0.9659258127212524,0.9659258127212524,0.9659258127212524],"min":[-0.9659258127212524,-0.9659258127212524,-0.9659258127212524],"type":"VEC3"},{"bufferView":10,"componentType":5126,"count":264,"max":[0.6842463612556458,0.6088213324546814],"min":[0.01032254844903946,0],"type":"VEC2"},{"bufferView":11,"componentType":5123,"count":360,"max":[263],"min":[0],"type":"SCALAR"},{"bufferView":12,"componentType":5126,"count":120,"max":[0.03125,0.19374999403953552,0.03125],"min":[-0.03125,0.05624999850988388,-0.03125],"type":"VEC3"},{"bufferView":13,"componentType":5126,"count":120,"max":[1,1,1],"min":[-1,-1,-1],"type":"VEC3"},{"bufferView":14,"componentType":5126,"count":120,"max":[0.625,0.8125],"min":[0.012249999679625034,0],"type":"VEC2"},{"bufferView":15,"componentType":5123,"count":144,"max":[119],"min":[0],"type":"SCALAR"}],"materials":[{"pbrMetallicRoughness":{"metallicFactor":0,"roughnessFactor":1,"baseColorTexture":{"index":0}},"alphaMode":"MASK","alphaCutoff":0.05,"doubleSided":true},{"pbrMetallicRoughness":{"metallicFactor":0,"roughnessFactor":1,"baseColorTexture":{"index":1}},"alphaMode":"MASK","alphaCutoff":0.05,"doubleSided":true},{"pbrMetallicRoughness":{"metallicFactor":0,"roughnessFactor":1,"baseColorTexture":{"index":2}},"alphaMode":"MASK","alphaCutoff":0.05,"doubleSided":true},{"pbrMetallicRoughness":{"metallicFactor":0,"roughnessFactor":1,"baseColorTexture":{"index":3}},"alphaMode":"MASK","alphaCutoff":0.05,"doubleSided":true}],"textures":[{"sampler":0,"source":0,"name":"bas batte v1.png"},{"sampler":1,"source":1,"name":"manche batte v1.png"},{"sampler":2,"source":2,"name":"haut batte v1.png"},{"sampler":3,"source":3,"name":"milieu batte v1.png"}],"samplers":[{"magFilter":9728,"minFilter":9728,"wrapS":33071,"wrapT":33071},{"magFilter":9728,"minFilter":9728,"wrapS":33071,"wrapT":33071},{"magFilter":9728,"minFilter":9728,"wrapS":33071,"wrapT":33071},{"magFilter":9728,"minFilter":9728,"wrapS":33071,"wrapT":33071}],"images":[{"mimeType":"image/png","uri":"data:image/png;base64,"},{"mimeType":"image/png","uri":"data:image/png;base64,"},{"mimeType":"image/png","uri":"data:image/png;base64,"},{"mimeType":"image/png","uri":"data:image/png;base64,"}],"meshes":[{"primitives":[{"mode":4,"attributes":{"POSITION":0,"NORMAL":1,"TEXCOORD_0":2},"indices":3,"material":0}]},{"primitives":[{"mode":4,"attributes":{"POSITION":4,"NORMAL":5,"TEXCOORD_0":6},"indices":7,"material":1}]},{"primitives":[{"mode":4,"attributes":{"POSITION":8,"NORMAL":9,"TEXCOORD_0":10},"indices":11,"material":2}]},{"primitives":[{"mode":4,"attributes":{"POSITION":12,"NORMAL":13,"TEXCOORD_0":14},"indices":15,"material":3}]}]}