{"asset":{"version":"2.0","generator":"Blockbench 4.11.2 glTF exporter"},"scenes":[{"nodes":[5],"name":"blockbench_export"}],"scene":0,"nodes":[{"translation":[-0.3125,0.0625,0],"name":"pilier droit","mesh":0},{"translation":[0.3125,0.0625,0],"name":"pilier gauche","mesh":1},{"translation":[0,0.5,-0.03125],"name":"poutre bas","mesh":2},{"translation":[0,0.625,-0.03125],"name":"poutre milieu","mesh":3},{"rotation":[-1,0,0,6.123233995736766e-17],"translation":[0,0.71875,0],"name":"poutre haut","mesh":4},{"children":[0,1,2,3,4]}],"bufferViews":[{"buffer":0,"byteOffset":0,"byteLength":1440,"target":34962,"byteStride":12},{"buffer":0,"byteOffset":1440,"byteLength":1440,"target":34962,"byteStride":12},{"buffer":0,"byteOffset":2880,"byteLength":960,"target":34962,"byteStride":8},{"buffer":0,"byteOffset":3840,"byteLength":288,"target":34963},{"buffer":0,"byteOffset":4128,"byteLength":1440,"target":34962,"byteStride":12},{"buffer":0,"byteOffset":5568,"byteLength":1440,"target":34962,"byteStride":12},{"buffer":0,"byteOffset":7008,"byteLength":960,"target":34962,"byteStride":8},{"buffer":0,"byteOffset":7968,"byteLength":288,"target":34963},{"buffer":0,"byteOffset":8256,"byteLength":288,"target":34962,"byteStride":12},{"buffer":0,"byteOffset":8544,"byteLength":288,"target":34962,"byteStride":12},{"buffer":0,"byteOffset":8832,"byteLength":192,"target":34962,"byteStride":8},{"buffer":0,"byteOffset":9024,"byteLength":72,"target":34963},{"buffer":0,"byteOffset":9096,"byteLength":288,"target":34962,"byteStride":12},{"buffer":0,"byteOffset":9384,"byteLength":288,"target":34962,"byteStride":12},{"buffer":0,"byteOffset":9672,"byteLength":192,"target":34962,"byteStride":8},{"buffer":0,"byteOffset":9864,"byteLength":72,"target":34963},{"buffer":0,"byteOffset":9936,"byteLength":336,"target":34962,"byteStride":12},{"buffer":0,"byteOffset":10272,"byteLength":336,"target":34962,"byteStride":12},{"buffer":0,"byteOffset":10608,"byteLength":224,"target":34962,"byteStride":8},{"buffer":0,"byteOffset":10832,"byteLength":84,"target":34963}],"buffers":[{"byteLength":10916,"uri":"data:application/octet-stream;base64,"}],"accessors":[{"bufferView":0,"componentType":5126,"count":120,"max":[0.0625,0.5625,0.0625],"min":[-0.0625,-0.0625,-0.0625],"type":"VEC3"},{"bufferView":1,"componentType":5126,"count":120,"max":[1,1,1],"min":[-1,-1,-1],"type":"VEC3"},{"bufferView":2,"componentType":5126,"count":120,"max":[0.6674187779426575,0.8125],"min":[0,0],"type":"VEC2"},{"bufferView":3,"componentType":5123,"count":144,"max":[119],"min":[0],"type":"SCALAR"},{"bufferView":4,"componentType":5126,"count":120,"max":[0.0625,0.5625,0.0625],"min":[-0.0625,-0.0625,-0.0625],"type":"VEC3"},{"bufferView":5,"componentType":5126,"count":120,"max":[1,1,1],"min":[-1,-1,-1],"type":"VEC3"},{"bufferView":6,"componentType":5126,"count":120,"max":[0.6674187779426575,0.8125],"min":[0,0],"type":"VEC2"},{"bufferView":7,"componentType":5123,"count":144,"max":[119],"min":[0],"type":"SCALAR"},{"bufferView":8,"componentType":5126,"count":24,"max":[0.4375,0.0625,0.08749999850988388],"min":[-0.4375,0,-0.02500000037252903],"type":"VEC3"},{"bufferView":9,"componentType":5126,"count":24,"max":[1,1,1],"min":[-1,-1,-1],"type":"VEC3"},{"bufferView":10,"componentType":5126,"count":24,"max":[0.875,0.3125],"min":[0,0],"type":"VEC2"},{"bufferView":11,"componentType":5123,"count":36,"max":[23],"min":[0],"type":"SCALAR"},{"bufferView":12,"componentType":5126,"count":24,"max":[0.4375,0.0625,0.125],"min":[-0.4375,0,-0.0625],"type":"VEC3"},{"bufferView":13,"componentType":5126,"count":24,"max":[1,1,1],"min":[-1,-1,-1],"type":"VEC3"},{"bufferView":14,"componentType":5126,"count":24,"max":[0.875,0.3125],"min":[0,0],"type":"VEC2"},{"bufferView":15,"componentType":5123,"count":36,"max":[23],"min":[0],"type":"SCALAR"},{"bufferView":16,"componentType":5126,"count":28,"max":[0.5625,0.03125,0.125],"min":[-0.5625,-0.03125,-0.125],"type":"VEC3"},{"bufferView":17,"componentType":5126,"count":28,"max":[0.6643638610839844,1,1],"min":[-0.6643638610839844,-1,-1],"type":"VEC3"},{"bufferView":18,"componentType":5126,"count":28,"max":[1,0.6875],"min":[0,0],"type":"VEC2"},{"bufferView":19,"componentType":5123,"count":42,"max":[27],"min":[0],"type":"SCALAR"}],"materials":[{"pbrMetallicRoughness":{"metallicFactor":0,"roughnessFactor":1,"baseColorTexture":{"index":0}},"alphaMode":"MASK","alphaCutoff":0.05,"doubleSided":true},{"pbrMetallicRoughness":{"metallicFactor":0,"roughnessFactor":1,"baseColorTexture":{"index":1}},"alphaMode":"MASK","alphaCutoff":0.05,"doubleSided":true},{"pbrMetallicRoughness":{"metallicFactor":0,"roughnessFactor":1,"baseColorTexture":{"index":2}},"alphaMode":"MASK","alphaCutoff":0.05,"doubleSided":true},{"pbrMetallicRoughness":{"metallicFactor":0,"roughnessFactor":1,"baseColorTexture":{"index":3}},"alphaMode":"MASK","alphaCutoff":0.05,"doubleSided":true},{"pbrMetallicRoughness":{"metallicFactor":0,"roughnessFactor":1,"baseColorTexture":{"index":4}},"alphaMode":"MASK","alphaCutoff":0.05,"doubleSided":true}],"textures":[{"sampler":0,"source":0,"name":"pilier gauche porte japonaise v1.png"},{"sampler":1,"source":1,"name":"pilier droit porte japonaise v1.png"},{"sampler":2,"source":2,"name":"poutre bas porte japonaise v1.png"},{"sampler":3,"source":3,"name":"poutre milieu porte japonaise v1.png"},{"sampler":4,"source":4,"name":"poutre haut porte japonaise v1.png"}],"samplers":[{"magFilter":9728,"minFilter":9728,"wrapS":33071,"wrapT":33071},{"magFilter":9728,"minFilter":9728,"wrapS":33071,"wrapT":33071},{"magFilter":9728,"minFilter":9728,"wrapS":33071,"wrapT":33071},{"magFilter":9728,"minFilter":9728,"wrapS":33071,"wrapT":33071},{"magFilter":9728,"minFilter":9728,"wrapS":33071,"wrapT":33071}],"images":[{"mimeType":"image/png","uri":"data:image/png;base64,"},{"mimeType":"image/png","uri":"data:image/png;base64,"},{"mimeType":"image/png","uri":"data:image/png;base64,"},{"mimeType":"image/png","uri":"data:image/png;base64,"},{"mimeType":"image/png","uri":"data:image/png;base64,"}],"meshes":[{"primitives":[{"mode":4,"attributes":{"POSITION":0,"NORMAL":1,"TEXCOORD_0":2},"indices":3,"material":0}]},{"primitives":[{"mode":4,"attributes":{"POSITION":4,"NORMAL":5,"TEXCOORD_0":6},"indices":7,"material":1}]},{"primitives":[{"mode":4,"attributes":{"POSITION":8,"NORMAL":9,"TEXCOORD_0":10},"indices":11,"material":2}]},{"primitives":[{"mode":4,"attributes":{"POSITION":12,"NORMAL":13,"TEXCOORD_0":14},"indices":15,"material":3}]},{"primitives":[{"mode":4,"attributes":{"POSITION":16,"NORMAL":17,"TEXCOORD_0":18},"indices":19,"material":4}]}]}